<svg width="25" height="25" xmlns="http://www.w3.org/2000/svg">
	<title>Lock</title>
	<path stroke="null" id="locker" fill="#999999" class="active-path" d="m21.47221,10.08335l-1.58333,0l0,-1.83335c0,-3.53818 -3.31456,-6.41666 -7.38888,-6.41666s-7.38888,2.87848 -7.38888,6.41666l0,1.83335l-1.58333,0c-0.29173,0 -0.52779,0.205 -0.52779,0.45835l0,11.45836c0,1.0111 0.94678,1.83331 2.11113,1.83331l14.7778,0c1.16429,0 2.11108,-0.82221 2.11108,-1.83335l0,-11.45832c0,-0.25334 -0.23607,-0.45835 -0.52779,-0.45835zm-7.39194,9.57444c0.01648,0.12934 -0.03142,0.25914 -0.13142,0.3563c-0.1,0.09711 -0.24329,0.15263 -0.39326,0.15263l-2.11113,0c-0.14997,0 -0.29326,-0.05552 -0.39326,-0.15263c-0.1,-0.09711 -0.14794,-0.22692 -0.13142,-0.3563l0.33295,-2.60004c-0.54066,-0.34152 -0.86381,-0.88176 -0.86381,-1.47439c0,-1.0111 0.94678,-1.83335 2.11113,-1.83335s2.11113,0.82221 2.11113,1.83335c0,0.59263 -0.32315,1.13287 -0.86381,1.47439l0.3329,2.60004zm2.64194,-9.57444l-8.44442,0l0,-1.83335c0,-2.02177 1.89411,-3.66666 4.22221,-3.66666s4.22221,1.64489 4.22221,3.66666l0,1.83335z"/>
</svg>